<?xml version="1.0" standalone="no"?>
<!DOCTYPE svg PUBLIC "-//W3C//DTD SVG 20010904//EN"
 "http://www.w3.org/TR/2001/REC-SVG-20010904/DTD/svg10.dtd">
<svg version="1.0" xmlns="http://www.w3.org/2000/svg"
 width="202.000000pt" height="185.000000pt" viewBox="0 0 202.000000 185.000000"
 preserveAspectRatio="xMidYMid meet">

<g transform="translate(0.000000,185.000000) scale(0.100000,-0.100000)"
fill="#F3F4F8" stroke="none">
<path d="M165 1793 c-41 -21 -65 -43 -80 -73 -48 -93 -1 -214 93 -240 21 -5
145 -10 277 -10 l240 0 65 -31 c73 -34 120 -74 120 -101 0 -10 -35 -56 -78
-102 -88 -95 -138 -184 -152 -273 -6 -32 -10 -152 -10 -268 0 -180 -3 -215
-18 -245 -35 -71 -124 -100 -193 -64 -56 29 -59 52 -53 371 7 358 0 471 -30
515 -52 77 -132 98 -216 56 -94 -48 -102 -87 -99 -516 2 -342 9 -421 47 -504
73 -159 228 -258 402 -258 224 0 418 163 459 385 6 32 11 170 11 305 0 227 2
248 18 263 28 26 46 21 96 -27 l45 -44 103 5 c101 5 103 5 136 39 28 29 32 41
32 87 0 59 -8 74 -87 160 -30 33 -53 68 -53 80 -1 38 -68 187 -110 243 -85
113 -244 216 -382 249 -94 22 -540 21 -583 -2z"/>
<path d="M1735 1456 c-41 -19 -72 -54 -90 -105 -13 -37 -15 -114 -15 -480 -1
-327 -4 -440 -13 -451 -26 -34 -62 -50 -110 -50 -42 0 -53 5 -89 39 -37 34
-43 45 -49 97 -4 33 -8 107 -8 165 -1 126 -10 155 -59 192 -33 26 -43 28 -97
25 -112 -7 -147 -54 -153 -208 -9 -243 31 -380 145 -495 85 -84 176 -126 293
-133 101 -5 153 5 244 51 109 53 195 165 228 295 13 50 21 707 11 875 -6 98
-23 134 -82 174 -39 26 -108 30 -156 9z"/>
</g>
</svg> 