<?xml version="1.0" standalone="no"?>
<!DOCTYPE svg PUBLIC "-//W3C//DTD SVG 20010904//EN"
 "http://www.w3.org/TR/2001/REC-SVG-20010904/DTD/svg10.dtd">
<svg version="1.0" xmlns="http://www.w3.org/2000/svg"
 width="294.000000pt" height="72.000000pt" viewBox="0 0 294.000000 72.000000"
 preserveAspectRatio="xMidYMid meet">

<g transform="translate(0.000000,72.000000) scale(0.100000,-0.100000)"
fill="#000000" stroke="none">
<path d="M928 631 c-34 -22 -53 -44 -74 -88 -25 -51 -29 -69 -29 -148 0 -118
21 -180 79 -233 49 -45 102 -59 188 -49 82 10 136 59 163 145 6 22 5 22 -77
22 -72 0 -85 -3 -96 -20 -28 -45 -72 -11 -72 56 l0 24 135 0 135 0 -4 38 c-3
20 -8 58 -10 85 -14 125 -96 197 -224 197 -58 0 -75 -4 -114 -29z m149 -122
c7 -13 13 -36 13 -51 0 -26 -3 -28 -40 -28 -39 0 -40 1 -40 37 0 37 25 76 44
70 6 -2 17 -14 23 -28z"/>
<path d="M1422 625 c-25 -22 -46 -54 -56 -82 -48 -141 -21 -329 58 -402 37
-35 122 -41 171 -13 28 17 35 18 35 7 0 -12 19 -15 100 -15 l100 0 0 266 0
266 -117 -1 c-65 0 -148 2 -185 5 -65 6 -67 5 -106 -31z m183 -135 c37 -40 30
-190 -9 -214 -14 -9 -21 -6 -38 14 -35 43 -18 220 22 220 4 0 15 -9 25 -20z"/>
<path d="M2538 631 c-34 -22 -53 -44 -74 -88 -25 -51 -29 -69 -29 -148 0 -118
21 -180 79 -233 49 -45 102 -59 188 -49 80 10 137 61 163 145 6 22 5 22 -77
22 -72 0 -85 -3 -96 -20 -28 -45 -72 -11 -72 56 l0 24 135 0 c112 0 135 3 135
15 0 8 -5 49 -11 90 -22 144 -95 215 -225 215 -60 0 -76 -4 -116 -29z m149
-122 c7 -13 13 -36 13 -51 0 -26 -3 -28 -40 -28 -39 0 -40 1 -40 37 0 37 25
76 44 70 6 -2 17 -14 23 -28z"/>
<path d="M73 633 l-22 -18 55 -180 c30 -99 64 -211 75 -248 l20 -68 77 3 76 3
24 97 c13 54 28 96 32 93 4 -2 17 -47 29 -100 l22 -95 78 0 78 0 48 157 c27
87 63 207 81 266 l32 108 -96 -3 -96 -3 -17 -70 c-9 -38 -20 -83 -23 -99 -10
-42 -17 -27 -35 76 l-16 93 -86 3 -86 3 -14 -80 c-12 -79 -23 -110 -33 -100
-3 3 -13 43 -23 90 l-18 84 -70 3 c-54 1 -75 -2 -92 -15z"/>
<path d="M1910 643 c-1 -4 34 -124 77 -265 l77 -258 81 0 81 0 80 265 81 265
-97 0 -97 0 -18 -87 c-29 -142 -32 -141 -67 22 l-13 60 -93 3 c-50 1 -92 -1
-92 -5z"/>
</g>
</svg>
