<svg width="16" height="16" viewBox="0 0 16 16" fill="none" xmlns="http://www.w3.org/2000/svg">
<path d="M0.378893 13.763L4.0574 10.0338C3.4324 9.02518 3.06965 7.83301 3.06965 6.55359C3.06965 2.93393 5.96434 0 9.53496 0C13.1056 0 16 2.93393 16 6.55359C16 10.1734 13.1057 13.107 9.53496 13.107C8.16143 13.107 6.88919 12.6717 5.84231 11.9321L2.20757 15.6169C1.95501 15.8726 1.62392 16 1.29323 16C0.962142 16 0.631454 15.8726 0.378489 15.6169C-0.12623 15.1047 -0.12623 14.275 0.378893 13.763ZM9.53496 10.9838C11.9484 10.9838 13.905 9.00046 13.905 6.55386C13.905 4.10726 11.9484 2.12381 9.53496 2.12381C7.12141 2.12381 5.1649 4.10726 5.1649 6.55386C5.1649 9.00046 7.12141 10.9838 9.53496 10.9838Z" fill="#AFBBC9"/>
</svg>
