<?xml version="1.0" encoding="UTF-8"?>
<!DOCTYPE svg PUBLIC "-//W3C//DTD SVG 1.1//EN" "http://www.w3.org/Graphics/SVG/1.1/DTD/svg11.dtd">
<svg xmlns="http://www.w3.org/2000/svg" version="1.1" width="1536px" height="1024px" style="shape-rendering:geometricPrecision; text-rendering:geometricPrecision; image-rendering:optimizeQuality; fill-rule:evenodd; clip-rule:evenodd" xmlns:xlink="http://www.w3.org/1999/xlink">
<g><path style="opacity:1" fill="#fdfdfe" d="M -0.5,-0.5 C 511.5,-0.5 1023.5,-0.5 1535.5,-0.5C 1535.5,340.833 1535.5,682.167 1535.5,1023.5C 1023.5,1023.5 511.5,1023.5 -0.5,1023.5C -0.5,682.167 -0.5,340.833 -0.5,-0.5 Z"/></g>
<g><path style="opacity:1" fill="#ebedf2" d="M 116.5,61.5 C 530.833,61.3333 945.167,61.5 1359.5,62C 1372.34,63.8405 1380.51,71.0072 1384,83.5C 1384.99,288.201 1384.66,492.867 1383,697.5C 1379.7,707.4 1372.86,712.9 1362.5,714C 1277.5,714.5 1192.5,714.667 1107.5,714.5C 1107.5,712.833 1107.5,711.167 1107.5,709.5C 1192.5,709.667 1277.5,709.5 1362.5,709C 1369.79,707.946 1374.96,704.113 1378,697.5C 1379.66,492.875 1380,288.209 1379,83.5C 1375.74,73.5685 1368.9,68.0685 1358.5,67C 944.167,66.3333 529.833,66.3333 115.5,67C 104.552,69.6144 98.052,76.4477 96,87.5C 95.3333,288.5 95.3333,489.5 96,690.5C 97.6133,700.78 103.447,707.28 113.5,710C 152.165,710.5 190.832,710.667 229.5,710.5C 229.67,711.822 229.337,712.989 228.5,714C 189.167,714.667 149.833,714.667 110.5,714C 100.594,711.093 94.4269,704.593 92,694.5C 91.3333,491.167 91.3333,287.833 92,84.5C 95.2272,71.4853 103.394,63.8186 116.5,61.5 Z"/></g>
<g><path style="opacity:1" fill="#fe8524" d="M 1187.5,130.5 C 1223.12,97.6141 1263.79,89.7808 1309.5,107C 1360.18,133.196 1381.02,174.696 1372,231.5C 1359.38,279.785 1328.55,308.285 1279.5,317C 1225.43,320.392 1187.26,297.559 1165,248.5C 1149.61,204.637 1157.11,165.303 1187.5,130.5 Z"/></g>
<g><path style="opacity:1" fill="#fcfcfc" d="M 1260.5,134.5 C 1279.47,133.705 1286.64,142.705 1282,161.5C 1280.51,183.181 1278.84,204.848 1277,226.5C 1273.78,234.346 1268.28,236.513 1260.5,233C 1258.62,231.457 1257.12,229.624 1256,227.5C 1254,201.824 1251.83,176.157 1249.5,150.5C 1250.04,142.966 1253.71,137.632 1260.5,134.5 Z"/></g>
<g><path style="opacity:1" fill="#e9ecf1" d="M 1187.5,130.5 C 960.54,131.331 733.54,131.831 506.5,132C 502.502,133.486 500.002,136.32 499,140.5C 498.333,200.167 498.333,259.833 499,319.5C 500.598,324.099 503.765,326.932 508.5,328C 549.165,328.5 589.832,328.667 630.5,328.5C 630.579,329.93 630.246,331.264 629.5,332.5C 589.504,333.667 549.504,333.833 509.5,333C 501.765,332.046 496.598,327.879 494,320.5C 493.333,260.167 493.333,199.833 494,139.5C 495.689,134.475 498.856,130.641 503.5,128C 731.833,127.333 960.167,127.333 1188.5,128C 1187.75,128.671 1187.41,129.504 1187.5,130.5 Z"/></g>
<g><path style="opacity:1" fill="#e3e6ed" d="M 243.5,118.5 C 262.17,118.333 280.836,118.5 299.5,119C 300.308,119.308 300.975,119.808 301.5,120.5C 302.148,126.786 302.481,133.119 302.5,139.5C 302.629,146.269 302.129,152.936 301,159.5C 300.5,160 300,160.5 299.5,161C 291.173,161.5 282.84,161.666 274.5,161.5C 274.5,170.167 274.5,178.833 274.5,187.5C 302.169,187.333 329.835,187.5 357.5,188C 359.049,189.214 360.215,190.714 361,192.5C 361.5,199.158 361.666,205.825 361.5,212.5C 370.418,212.183 379.251,212.516 388,213.5C 389.628,226.405 389.961,239.405 389,252.5C 388.167,253.333 387.333,254.167 386.5,255C 368.5,255.667 350.5,255.667 332.5,255C 331.667,254.167 330.833,253.333 330,252.5C 329.333,239.833 329.333,227.167 330,214.5C 330.5,214 331,213.5 331.5,213C 340.494,212.5 349.494,212.334 358.5,212.5C 358.795,205.774 358.462,199.108 357.5,192.5C 329.841,191.5 302.175,191.167 274.5,191.5C 274.5,198.5 274.5,205.5 274.5,212.5C 282.84,212.334 291.173,212.5 299.5,213C 300.308,213.308 300.975,213.808 301.5,214.5C 302.646,226.787 302.813,239.121 302,251.5C 301.5,253.333 300.333,254.5 298.5,255C 280.833,255.667 263.167,255.667 245.5,255C 243.667,254.5 242.5,253.333 242,251.5C 241.333,239.167 241.333,226.833 242,214.5C 242.5,214 243,213.5 243.5,213C 252.16,212.5 260.827,212.334 269.5,212.5C 269.5,205.5 269.5,198.5 269.5,191.5C 241.825,191.167 214.159,191.5 186.5,192.5C 185.538,199.108 185.205,205.774 185.5,212.5C 194.506,212.334 203.506,212.5 212.5,213C 213.701,213.903 214.535,215.069 215,216.5C 215.667,228.167 215.667,239.833 215,251.5C 214.626,252.416 214.126,253.25 213.5,254C 204.096,255.142 194.596,255.642 185,255.5C 176.167,255.333 167.333,255.167 158.5,255C 156.667,254.5 155.5,253.333 155,251.5C 154.333,239.167 154.333,226.833 155,214.5C 155.75,213.874 156.584,213.374 157.5,213C 165.827,212.5 174.16,212.334 182.5,212.5C 182.334,205.159 182.5,197.826 183,190.5C 183.903,189.299 185.069,188.465 186.5,188C 214.165,187.5 241.831,187.333 269.5,187.5C 269.5,178.833 269.5,170.167 269.5,161.5C 261.16,161.666 252.827,161.5 244.5,161C 243.692,160.692 243.025,160.192 242.5,159.5C 241.353,146.546 241.186,133.546 242,120.5C 242.717,119.956 243.217,119.289 243.5,118.5 Z"/></g>
<g><path style="opacity:1" fill="#f2f3f7" d="M 246.5,122.5 C 263.5,122.5 280.5,122.5 297.5,122.5C 297.5,133.833 297.5,145.167 297.5,156.5C 280.5,156.5 263.5,156.5 246.5,156.5C 246.5,145.167 246.5,133.833 246.5,122.5 Z"/></g>
<g><path style="opacity:1" fill="#e3e7ed" d="M 892.5,185.5 C 884.814,183.502 877.48,184.335 870.5,188C 866.345,191.988 862.345,196.155 858.5,200.5C 850.92,212.911 842.753,224.911 834,236.5C 826.849,243.795 818.683,245.295 809.5,241C 806.414,237.243 802.748,234.243 798.5,232C 790.952,231.998 784.452,229.498 779,224.5C 774.331,217.351 768.831,210.851 762.5,205C 754.156,199.188 745.823,199.188 737.5,205C 734.296,207.869 731.463,211.035 729,214.5C 723.667,223.167 718.333,231.833 713,240.5C 705.557,248.637 696.39,251.804 685.5,250C 679.955,245.577 674.622,240.911 669.5,236C 663.435,232.716 657.435,232.716 651.5,236C 646.97,242.042 641.97,247.709 636.5,253C 627.543,256.626 620.377,254.46 615,246.5C 610.413,238.996 606.08,231.329 602,223.5C 588.708,204.387 574.708,203.721 560,221.5C 552.162,233.839 544.828,246.506 538,259.5C 536.693,261.192 535.193,262.525 533.5,263.5C 532.387,262.054 532.22,260.387 533,258.5C 541.371,242.248 550.871,226.748 561.5,212C 576.68,199.669 590.513,201.169 603,216.5C 608.667,226.167 614.333,235.833 620,245.5C 624.283,249.588 629.116,250.421 634.5,248C 639.523,241.979 644.856,236.312 650.5,231C 657.695,227.42 664.695,227.753 671.5,232C 676.467,235.966 681.134,240.299 685.5,245C 696.745,246.796 705.578,242.962 712,233.5C 717.718,222.557 724.552,212.39 732.5,203C 743.577,194.729 754.911,194.396 766.5,202C 773.5,209.667 780.5,217.333 787.5,225C 792.167,226 796.833,227 801.5,228C 805.167,231 808.833,234 812.5,237C 820.285,239.851 826.785,238.017 832,231.5C 839.079,222.346 845.413,212.68 851,202.5C 855.787,195.712 861.287,189.546 867.5,184C 878.139,178.792 889.139,178.125 900.5,182C 901.833,183 901.833,184 900.5,185C 897.854,185.497 895.187,185.664 892.5,185.5 Z"/></g>
<g><path style="opacity:1" fill="#f2f4f7" d="M 159.5,216.5 C 176.5,216.5 193.5,216.5 210.5,216.5C 210.5,227.833 210.5,239.167 210.5,250.5C 193.5,250.5 176.5,250.5 159.5,250.5C 159.5,239.167 159.5,227.833 159.5,216.5 Z"/></g>
<g><path style="opacity:1" fill="#f2f4f7" d="M 333.5,216.5 C 350.833,216.5 368.167,216.5 385.5,216.5C 385.5,227.833 385.5,239.167 385.5,250.5C 368.167,250.5 350.833,250.5 333.5,250.5C 333.5,239.167 333.5,227.833 333.5,216.5 Z"/></g>
<g><path style="opacity:1" fill="#f2f4f7" d="M 246.5,216.5 C 263.5,216.5 280.5,216.5 297.5,216.5C 297.5,227.833 297.5,239.167 297.5,250.5C 280.5,250.5 263.5,250.5 246.5,250.5C 246.5,239.167 246.5,227.833 246.5,216.5 Z"/></g>
<g><path style="opacity:1" fill="#f2f3f7" d="M 892.5,185.5 C 892.5,225.5 892.5,265.5 892.5,305.5C 877.496,305.667 862.496,305.5 847.5,305C 846.264,303.915 844.931,303.082 843.5,302.5C 836.089,290.272 825.423,282.105 811.5,278C 772.407,266.599 733.074,265.599 693.5,275C 674.735,280.954 658.735,291.121 645.5,305.5C 608.689,305.466 571.356,305.466 533.5,305.5C 533.5,291.5 533.5,277.5 533.5,263.5C 535.193,262.525 536.693,261.192 538,259.5C 544.828,246.506 552.162,233.839 560,221.5C 574.708,203.721 588.708,204.387 602,223.5C 606.08,231.329 610.413,238.996 615,246.5C 620.377,254.46 627.543,256.626 636.5,253C 641.97,247.709 646.97,242.042 651.5,236C 657.435,232.716 663.435,232.716 669.5,236C 674.622,240.911 679.955,245.577 685.5,250C 696.39,251.804 705.557,248.637 713,240.5C 718.333,231.833 723.667,223.167 729,214.5C 731.463,211.035 734.296,207.869 737.5,205C 745.823,199.188 754.156,199.188 762.5,205C 768.831,210.851 774.331,217.351 779,224.5C 784.452,229.498 790.952,231.998 798.5,232C 802.748,234.243 806.414,237.243 809.5,241C 818.683,245.295 826.849,243.795 834,236.5C 842.753,224.911 850.92,212.911 858.5,200.5C 862.345,196.155 866.345,191.988 870.5,188C 877.48,184.335 884.814,183.502 892.5,185.5 Z"/></g>
<g><path style="opacity:1" fill="#e3e7ed" d="M 1050.5,165.5 C 1088.79,162.715 1115.63,178.715 1131,213.5C 1141.49,250.039 1131.32,279.205 1100.5,301C 1070.86,316.636 1042.52,314.636 1015.5,295C 990.776,270.39 984.276,241.557 996,208.5C 1007.29,185.368 1025.46,171.035 1050.5,165.5 Z"/></g>
<g><path style="opacity:1" fill="#f2f3f6" d="M 1050.5,170.5 C 1053.83,170.5 1057.17,170.5 1060.5,170.5C 1060.17,192.843 1060.5,215.177 1061.5,237.5C 1079.49,252.154 1097.15,267.154 1114.5,282.5C 1096.94,302.303 1074.94,310.136 1048.5,306C 1010.54,294.294 992.707,268.46 995,228.5C 1001.5,197.5 1020,178.166 1050.5,170.5 Z"/></g>
<g><path style="opacity:1" fill="#fcfdfe" d="M 1115.5,196.5 C 1125.68,208.723 1130.68,222.889 1130.5,239C 1130.45,253.642 1126.12,266.809 1117.5,278.5C 1100.87,265.21 1084.54,251.543 1068.5,237.5C 1084.39,224.061 1100.05,210.395 1115.5,196.5 Z"/></g>
<g><path style="opacity:1" fill="#fcfdfe" d="M 1065.5,170.5 C 1084.69,171.26 1100.69,178.76 1113.5,193C 1097.67,206.833 1081.83,220.667 1066,234.5C 1065.5,213.169 1065.33,191.836 1065.5,170.5 Z"/></g>
<g><path style="opacity:1" fill="#fcfbfa" d="M 1263.5,248.5 C 1279.56,249.376 1285.06,257.376 1280,272.5C 1271.33,281.833 1262.67,281.833 1254,272.5C 1249.3,261.268 1252.46,253.268 1263.5,248.5 Z"/></g>
<g><path style="opacity:1" fill="#eceef3" d="M 447.5,448.5 C 446.417,448.461 445.417,448.127 444.5,447.5C 443.333,340.835 443.167,234.168 444,127.5C 445.113,126.289 446.28,126.289 447.5,127.5C 448.829,234.539 448.829,341.539 447.5,448.5 Z"/></g>
<g><path style="opacity:1" fill="#142b45" d="M 843.5,302.5 C 844.086,304.84 845.086,307.007 846.5,309C 859.535,312.545 869.535,320.045 876.5,331.5C 876.328,332.492 876.662,333.158 877.5,333.5C 886.831,356.428 888.998,380.095 884,404.5C 882.576,415.128 880.076,425.462 876.5,435.5C 874.011,435.298 871.677,435.798 869.5,437C 866.933,439.396 864.6,441.896 862.5,444.5C 860.026,446.567 857.86,449.567 856,453.5C 855.493,444.776 854.493,436.109 853,427.5C 852.517,428.448 852.351,429.448 852.5,430.5C 851.645,425.144 850.645,419.811 849.5,414.5C 848.423,403.976 847.09,393.476 845.5,383C 845.285,381.092 844.285,379.926 842.5,379.5C 842.5,379.167 842.5,378.833 842.5,378.5C 838.17,374.002 834.003,369.335 830,364.5C 826.817,358.784 824.317,352.784 822.5,346.5C 820.438,345.239 818.772,345.739 817.5,348C 817.728,348.399 818.062,348.565 818.5,348.5C 806.158,358.522 792.158,365.522 776.5,369.5C 775.903,368.861 775.07,368.528 774,368.5C 756.597,372.569 739.097,374.569 721.5,374.5C 705.257,373.148 689.424,369.814 674,364.5C 672.989,365.056 672.156,365.722 671.5,366.5C 669.19,374.049 667.357,383.049 666,393.5C 665.26,399.679 664.427,405.846 663.5,412C 663.514,413.385 663.848,414.551 664.5,415.5C 662.419,429.903 659.919,444.236 657,458.5C 653.919,452.669 650.585,447.002 647,441.5C 644.041,436.937 639.874,434.937 634.5,435.5C 625.171,405.37 623.004,374.703 628,343.5C 631.429,329.648 637.262,316.981 645.5,305.5C 658.735,291.121 674.735,280.954 693.5,275C 733.074,265.599 772.407,266.599 811.5,278C 825.423,282.105 836.089,290.272 843.5,302.5 Z"/></g>
<g><path style="opacity:1" fill="#eaecf2" d="M 155.5,292.5 C 233.167,292.333 310.834,292.5 388.5,293C 389.727,294.587 389.394,295.921 387.5,297C 310.5,297.667 233.5,297.667 156.5,297C 155.62,295.644 155.286,294.144 155.5,292.5 Z"/></g>
<g><path style="opacity:1" fill="#ebedf2" d="M 156.5,326.5 C 233.501,326.333 310.501,326.5 387.5,327C 388.38,328.356 388.714,329.856 388.5,331.5C 310.833,331.5 233.167,331.5 155.5,331.5C 155.366,329.708 155.699,328.042 156.5,326.5 Z"/></g>
<g><path style="opacity:1" fill="#eaecf1" d="M 877.5,333.5 C 876.662,333.158 876.328,332.492 876.5,331.5C 876.5,330.5 876.5,329.5 876.5,328.5C 1013.17,328.667 1149.83,328.5 1286.5,328C 1293.1,325.988 1296.77,321.488 1297.5,314.5C 1299.26,313.046 1300.6,313.38 1301.5,315.5C 1300.84,325.656 1295.51,331.489 1285.5,333C 1149.2,333.496 1013.2,333.663 877.5,333.5 Z"/></g>
<g><path style="opacity:1" fill="#0f163d" d="M 842.5,378.5 C 831.148,370.838 823.981,360.171 821,346.5C 820.292,347.381 819.458,348.047 818.5,348.5C 818.062,348.565 817.728,348.399 817.5,348C 818.772,345.739 820.438,345.239 822.5,346.5C 824.317,352.784 826.817,358.784 830,364.5C 834.003,369.335 838.17,374.002 842.5,378.5 Z"/></g>
<g><path style="opacity:1" fill="#eaecf2" d="M 155.5,361.5 C 211.834,361.333 268.168,361.5 324.5,362C 325.727,363.587 325.394,364.921 323.5,366C 267.833,366.667 212.167,366.667 156.5,366C 155.62,364.644 155.286,363.144 155.5,361.5 Z"/></g>
<g><path style="opacity:1" fill="#061239" d="M 671.5,366.5 C 668.886,382.795 666.553,399.129 664.5,415.5C 663.848,414.551 663.514,413.385 663.5,412C 664.427,405.846 665.26,399.679 666,393.5C 667.357,383.049 669.19,374.049 671.5,366.5 Z"/></g>
<g><path style="opacity:1" fill="#fec280" d="M 842.5,378.5 C 842.5,378.833 842.5,379.167 842.5,379.5C 841.522,380.297 841.855,380.964 843.5,381.5C 845.472,393.805 847.306,406.138 849,418.5C 849.49,417.207 849.657,415.873 849.5,414.5C 850.645,419.811 851.645,425.144 852.5,430.5C 853.296,439.497 854.129,448.497 855,457.5C 857.523,453.112 860.023,448.778 862.5,444.5C 864.6,441.896 866.933,439.396 869.5,437C 871.677,435.798 874.011,435.298 876.5,435.5C 879.617,435.642 882.117,436.976 884,439.5C 890.809,452.576 891.142,465.909 885,479.5C 882.218,486.9 878.051,493.4 872.5,499C 867.336,502.172 862.002,503.839 856.5,504C 851.435,526.071 842.435,546.238 829.5,564.5C 806.748,592.025 777.414,603.858 741.5,600C 718.927,595.085 700.094,583.918 685,566.5C 684.802,568.382 684.302,570.048 683.5,571.5C 683.663,569.143 683.497,566.81 683,564.5C 669.504,546.201 660.337,525.868 655.5,503.5C 650.275,503.703 645.608,502.203 641.5,499C 625.051,482.047 620.885,462.547 629,440.5C 630.704,438.627 632.537,436.96 634.5,435.5C 639.874,434.937 644.041,436.937 647,441.5C 650.585,447.002 653.919,452.669 657,458.5C 659.919,444.236 662.419,429.903 664.5,415.5C 666.553,399.129 668.886,382.795 671.5,366.5C 672.156,365.722 672.989,365.056 674,364.5C 689.424,369.814 705.257,373.148 721.5,374.5C 740.118,375.561 758.452,373.895 776.5,369.5C 792.158,365.522 806.158,358.522 818.5,348.5C 819.458,348.047 820.292,347.381 821,346.5C 823.981,360.171 831.148,370.838 842.5,378.5 Z"/></g>
<g><path style="opacity:1" fill="#040d39" d="M 776.5,369.5 C 758.452,373.895 740.118,375.561 721.5,374.5C 739.097,374.569 756.597,372.569 774,368.5C 775.07,368.528 775.903,368.861 776.5,369.5 Z"/></g>
<g><path style="opacity:1" fill="#e9ebf1" d="M 505.5,374.5 C 544.833,374.5 584.167,374.5 623.5,374.5C 623.5,376.167 623.5,377.833 623.5,379.5C 584.499,379.333 545.499,379.5 506.5,380C 502.572,381.593 500.072,384.427 499,388.5C 498.5,402.496 498.333,416.496 498.5,430.5C 496.833,430.5 495.167,430.5 493.5,430.5C 493.333,416.163 493.5,401.829 494,387.5C 496.273,381.73 500.106,377.397 505.5,374.5 Z"/></g>
<g><path style="opacity:1" fill="#efd48a" d="M 842.5,379.5 C 844.285,379.926 845.285,381.092 845.5,383C 847.09,393.476 848.423,403.976 849.5,414.5C 849.657,415.873 849.49,417.207 849,418.5C 847.306,406.138 845.472,393.805 843.5,381.5C 841.855,380.964 841.522,380.297 842.5,379.5 Z"/></g>
<g><path style="opacity:1" fill="#e9ecf1" d="M 957.5,496.5 C 955.972,497.309 954.306,497.976 952.5,498.5C 951.673,461.238 951.173,423.905 951,386.5C 949.132,382.479 945.965,380.313 941.5,380C 923.503,379.5 905.503,379.333 887.5,379.5C 887.5,377.833 887.5,376.167 887.5,374.5C 906.17,374.333 924.836,374.5 943.5,375C 949.87,376.436 954.037,380.269 956,386.5C 956.167,423.336 956.667,460.002 957.5,496.5 Z"/></g>
<g><path style="opacity:1" fill="#eaecf2" d="M 1028.5,416.5 C 1134.84,416.167 1241.17,416.5 1347.5,417.5C 1348.83,418.5 1348.83,419.5 1347.5,420.5C 1241.17,421.667 1134.83,421.833 1028.5,421C 1027.27,419.51 1027.27,418.01 1028.5,416.5 Z"/></g>
<g><path style="opacity:1" fill="#e8ebf1" d="M 155.5,417.5 C 233.167,417.333 310.834,417.5 388.5,418C 389.833,419 389.833,420 388.5,421C 310.834,421.5 233.167,421.667 155.5,421.5C 155.5,420.167 155.5,418.833 155.5,417.5 Z"/></g>
<g><path style="opacity:1" fill="#eaecf2" d="M 990.5,496.5 C 988.901,496.768 987.568,496.434 986.5,495.5C 987.5,495.5 988.5,495.5 989.5,495.5C 989.333,459.498 989.5,423.498 990,387.5C 991.053,381.447 994.553,377.613 1000.5,376C 1115.83,375.333 1231.17,375.333 1346.5,376C 1347.38,377.356 1347.71,378.856 1347.5,380.5C 1232.5,380.333 1117.5,380.5 1002.5,381C 997.667,381.833 994.833,384.667 994,389.5C 993.5,424.832 993.333,460.165 993.5,495.5C 992.209,495.263 991.209,495.596 990.5,496.5 Z"/></g>
<g><path style="opacity:1" fill="#eceef4" d="M 155.5,446.5 C 218.5,446.5 281.5,446.5 344.5,446.5C 344.714,448.144 344.38,449.644 343.5,451C 280.834,451.5 218.168,451.667 155.5,451.5C 155.5,449.833 155.5,448.167 155.5,446.5 Z"/></g>
<g><path style="opacity:1" fill="#0e1539" d="M 862.5,444.5 C 860.023,448.778 857.523,453.112 855,457.5C 854.129,448.497 853.296,439.497 852.5,430.5C 852.351,429.448 852.517,428.448 853,427.5C 854.493,436.109 855.493,444.776 856,453.5C 857.86,449.567 860.026,446.567 862.5,444.5 Z"/></g>
<g><path style="opacity:1" fill="#ebedf2" d="M 1028.5,456.5 C 1134.5,456.333 1240.5,456.5 1346.5,457C 1347.38,458.356 1347.71,459.856 1347.5,461.5C 1240.83,461.5 1134.17,461.5 1027.5,461.5C 1027.37,459.708 1027.7,458.042 1028.5,456.5 Z"/></g>
<g><path style="opacity:1" fill="#ebedf2" d="M 155.5,477.5 C 233.167,477.333 310.834,477.5 388.5,478C 389.727,479.587 389.394,480.921 387.5,482C 310.833,482.667 234.167,482.667 157.5,482C 155.893,480.951 155.227,479.451 155.5,477.5 Z"/></g>
<g><path style="opacity:1" fill="#e9ebf1" d="M 1027.5,498.5 C 1111.64,498.003 1195.64,498.503 1279.5,500C 1279.04,500.414 1278.71,500.914 1278.5,501.5C 1194.84,502.5 1111.17,502.833 1027.5,502.5C 1027.5,501.167 1027.5,499.833 1027.5,498.5 Z"/></g>
<g><path style="opacity:1" fill="#eaecf2" d="M 155.5,509.5 C 206.5,509.5 257.5,509.5 308.5,509.5C 308.67,510.822 308.337,511.989 307.5,513C 256.833,513.667 206.167,513.667 155.5,513C 154.316,511.855 154.316,510.688 155.5,509.5 Z"/></g>
<g><path style="opacity:1" fill="#4488d0" d="M 986.5,495.5 C 987.568,496.434 988.901,496.768 990.5,496.5C 1020.57,502.731 1041.4,520.065 1053,548.5C 1055.59,555.277 1057.09,562.277 1057.5,569.5C 1056.5,589.66 1056.17,609.993 1056.5,630.5C 1047.17,630.5 1037.83,630.5 1028.5,630.5C 1028.5,630.167 1028.5,629.833 1028.5,629.5C 1029.66,608.671 1029.83,587.671 1029,566.5C 1028.76,564.148 1027.93,562.148 1026.5,560.5C 1015.06,535.263 995.392,523.43 967.5,525C 943.397,531.267 928.73,546.433 923.5,570.5C 922.499,589.12 922.166,609.12 922.5,630.5C 913.167,630.5 903.833,630.5 894.5,630.5C 894.333,608.497 894.5,586.497 895,564.5C 901.603,531.407 920.769,509.407 952.5,498.5C 954.306,497.976 955.972,497.309 957.5,496.5C 967.139,495.64 976.806,495.307 986.5,495.5 Z"/></g>
<g><path style="opacity:1" fill="#fcfdfe" d="M 1026.5,560.5 C 1026.84,562.854 1027.34,565.187 1028,567.5C 1028.5,588.164 1028.67,608.831 1028.5,629.5C 1028.5,629.833 1028.5,630.167 1028.5,630.5C 993.5,630.5 958.5,630.5 923.5,630.5C 923.5,610.5 923.5,590.5 923.5,570.5C 928.73,546.433 943.397,531.267 967.5,525C 995.392,523.43 1015.06,535.263 1026.5,560.5 Z"/></g>
<g><path style="opacity:1" fill="#e9ecf1" d="M 954.5,530.5 C 956.493,563.15 957.16,596.15 956.5,629.5C 954.833,629.5 953.167,629.5 951.5,629.5C 951.333,597.165 951.5,564.832 952,532.5C 952.995,531.934 953.828,531.267 954.5,530.5 Z"/></g>
<g><path style="opacity:1" fill="#eaecf2" d="M 1051.5,542.5 C 1127,541.501 1202.66,541.167 1278.5,541.5C 1278.71,543.144 1278.38,544.644 1277.5,546C 1202.83,546.667 1128.17,546.667 1053.5,546C 1052.92,544.698 1052.25,543.531 1051.5,542.5 Z"/></g>
<g><path style="opacity:1" fill="#eaecf2" d="M 156.5,541.5 C 233.834,541.333 311.167,541.5 388.5,542C 389.833,543.333 389.833,544.667 388.5,546C 310.834,546.5 233.167,546.667 155.5,546.5C 155.366,544.708 155.699,543.042 156.5,541.5 Z"/></g>
<g><path style="opacity:1" fill="#fe8525" d="M 497.5,622.5 C 496.5,622.5 495.5,622.5 494.5,622.5C 445.723,615.224 417.223,587.224 409,538.5C 405.258,501.177 418.092,471.177 447.5,448.5C 484.827,425.476 521.827,425.976 558.5,450C 587.936,474.291 600.103,505.457 595,543.5C 586.019,585.147 560.852,610.98 519.5,621C 512.214,622.186 504.881,622.686 497.5,622.5 Z"/></g>
<g><path style="opacity:1" fill="#fcfcfb" d="M 498.5,465.5 C 512.115,464.285 518.782,470.451 518.5,484C 516.69,505.169 514.857,526.336 513,547.5C 509.816,555.337 504.316,557.504 496.5,554C 494.951,552.786 493.785,551.286 493,549.5C 489.579,524.932 487.579,500.266 487,475.5C 489.616,470.632 493.449,467.298 498.5,465.5 Z"/></g>
<g><path style="opacity:1" fill="#fcfcfb" d="M 497.5,568.5 C 512.761,567.701 518.595,574.701 515,589.5C 509.403,596.801 502.569,598.301 494.5,594C 485.851,584.357 486.851,575.857 497.5,568.5 Z"/></g>
<g><path style="opacity:1" fill="#feaf66" d="M 829.5,564.5 C 829.334,570.509 829.501,576.509 830,582.5C 831.364,589.485 832.531,596.485 833.5,603.5C 831.28,608.272 828.78,612.938 826,617.5C 814.011,634.322 799.844,648.988 783.5,661.5C 773.225,666.811 764.225,673.811 756.5,682.5C 748.042,674.363 739.042,667.03 729.5,660.5C 723.093,654.448 716.426,648.615 709.5,643C 699.92,633.424 691.087,623.258 683,612.5C 680.928,609.029 679.428,605.362 678.5,601.5C 681.246,591.691 682.913,581.691 683.5,571.5C 684.302,570.048 684.802,568.382 685,566.5C 700.094,583.918 718.927,595.085 741.5,600C 777.414,603.858 806.748,592.025 829.5,564.5 Z"/></g>
<g><path style="opacity:1" fill="#e8ebf1" d="M 989.5,528.5 C 990.583,528.539 991.583,528.873 992.5,529.5C 993.333,550.159 993.833,570.825 994,591.5C 995.442,595.275 997.942,598.108 1001.5,600C 1010.17,600.333 1018.83,600.667 1027.5,601C 1026.17,602.333 1026.17,603.667 1027.5,605C 1018.5,605.667 1009.5,605.667 1000.5,605C 995.243,602.744 991.743,598.91 990,593.5C 989.5,571.836 989.333,550.169 989.5,528.5 Z"/></g>
<g><path style="opacity:1" fill="#ebedf3" d="M 155.5,598.5 C 185.835,598.333 216.168,598.5 246.5,599C 247.727,600.587 247.394,601.921 245.5,603C 215.833,603.667 186.167,603.667 156.5,603C 155.62,601.644 155.286,600.144 155.5,598.5 Z"/></g>
<g><path style="opacity:1" fill="#eaedf2" d="M 1057.5,600.5 C 1154.17,600.5 1250.83,600.5 1347.5,600.5C 1347.71,602.144 1347.38,603.644 1346.5,605C 1249.96,604.839 1153.62,605.672 1057.5,607.5C 1057.5,605.167 1057.5,602.833 1057.5,600.5 Z"/></g>
<g><path style="opacity:1" fill="#98c6f2" d="M 678.5,601.5 C 679.428,605.362 680.928,609.029 683,612.5C 691.087,623.258 699.92,633.424 709.5,643C 716.426,648.615 723.093,654.448 729.5,660.5C 713.134,668.193 699.134,679.027 687.5,693C 686.833,693.667 686.167,693.667 685.5,693C 678.052,685.281 672.219,676.448 668,666.5C 661.269,651.145 657.102,635.145 655.5,618.5C 662.317,611.683 669.983,606.017 678.5,601.5 Z"/></g>
<g><path style="opacity:1" fill="#98c6f1" d="M 852.5,615.5 C 853.787,617.257 855.287,618.924 857,620.5C 857.499,624.152 857.665,627.818 857.5,631.5C 858.791,631.263 859.791,631.596 860.5,632.5C 852.932,636.589 848.098,642.923 846,651.5C 845.5,703.832 845.333,756.166 845.5,808.5C 844.667,761.668 844.167,714.668 844,667.5C 841.255,673.325 838.255,678.992 835,684.5C 832.634,687.86 829.967,690.86 827,693.5C 819.9,685.066 812.067,677.233 803.5,670C 797.108,666.298 790.441,663.464 783.5,661.5C 799.844,648.988 814.011,634.322 826,617.5C 828.78,612.938 831.28,608.272 833.5,603.5C 834.789,602.499 836.122,602.666 837.5,604C 842.929,607.369 847.929,611.202 852.5,615.5 Z"/></g>
<g><path style="opacity:1" fill="#145fbd" d="M 1057.5,569.5 C 1057.5,579.833 1057.5,590.167 1057.5,600.5C 1057.5,602.833 1057.5,605.167 1057.5,607.5C 1057.5,615.167 1057.5,622.833 1057.5,630.5C 1066.84,630.334 1076.17,630.5 1085.5,631C 1089.99,631.426 1093.66,633.259 1096.5,636.5C 1093.45,634.637 1090.12,633.47 1086.5,633C 1076.12,633.146 1066.12,632.313 1056.5,630.5C 1056.17,609.993 1056.5,589.66 1057.5,569.5 Z"/></g>
<g><path style="opacity:1" fill="#186dc7" d="M 1026.5,560.5 C 1027.93,562.148 1028.76,564.148 1029,566.5C 1029.83,587.671 1029.66,608.671 1028.5,629.5C 1028.67,608.831 1028.5,588.164 1028,567.5C 1027.34,565.187 1026.84,562.854 1026.5,560.5 Z"/></g>
<g><path style="opacity:1" fill="#6ea7e2" d="M 852.5,615.5 C 865.231,620.689 878.231,625.189 891.5,629C 892.056,629.383 892.389,629.883 892.5,630.5C 883.494,630.334 874.494,630.5 865.5,631C 863.753,631.352 862.086,631.852 860.5,632.5C 859.791,631.596 858.791,631.263 857.5,631.5C 857.665,627.818 857.499,624.152 857,620.5C 855.287,618.924 853.787,617.257 852.5,615.5 Z"/></g>
<g><path style="opacity:1" fill="#ebedf3" d="M 443.5,604.5 C 445.229,605.117 446.729,606.117 448,607.5C 448.667,642.833 448.667,678.167 448,713.5C 446.667,714.833 445.333,714.833 444,713.5C 443.5,677.168 443.333,640.835 443.5,604.5 Z"/></g>
<g><path style="opacity:1" fill="#f2f3f7" d="M 329.5,589.5 C 324.487,609.718 319.654,630.051 315,650.5C 314.21,653.634 314.543,656.634 316,659.5C 317.067,660.191 318.234,660.691 319.5,661C 342.831,661.5 366.164,661.667 389.5,661.5C 388.014,693.229 372.347,715.395 342.5,728C 303.175,739.075 273.008,727.242 252,692.5C 237.671,658.98 243.504,629.647 269.5,604.5C 287.426,591.116 307.426,586.116 329.5,589.5 Z"/></g>
<g><path style="opacity:1" fill="#ebedf2" d="M 1127.5,643.5 C 1200.5,643.333 1273.5,643.5 1346.5,644C 1347.83,645.333 1347.83,646.667 1346.5,648C 1273.17,648.667 1199.83,648.667 1126.5,648C 1125.42,646.289 1125.75,644.789 1127.5,643.5 Z"/></g>
<g><path style="opacity:1" fill="#e4e8ee" d="M 389.5,661.5 C 366.164,661.667 342.831,661.5 319.5,661C 318.234,660.691 317.067,660.191 316,659.5C 314.543,656.634 314.21,653.634 315,650.5C 319.654,630.051 324.487,609.718 329.5,589.5C 331.056,587.012 333.389,586.012 336.5,586.5C 363.235,589.085 382.402,602.418 394,626.5C 398.832,636.808 400.166,647.475 398,658.5C 395.695,660.93 392.862,661.93 389.5,661.5 Z"/></g>
<g><path style="opacity:1" fill="#f2f3f7" d="M 332.5,591.5 C 372.302,594.967 392.968,616.634 394.5,656.5C 369.592,656.828 344.759,656.494 320,655.5C 323.836,634.15 328.003,612.817 332.5,591.5 Z"/></g>
<g><path style="opacity:1" fill="#ebedf2" d="M 1127.5,681.5 C 1173.5,681.167 1219.5,681.5 1265.5,682.5C 1266.71,683.72 1266.71,684.887 1265.5,686C 1219.17,686.5 1172.83,686.667 1126.5,686.5C 1126.37,684.708 1126.7,683.042 1127.5,681.5 Z"/></g>
<g><path style="opacity:1" fill="#eaecf2" d="M 494.5,622.5 C 495.5,622.5 496.5,622.5 497.5,622.5C 498.316,648.791 498.816,675.124 499,701.5C 500.105,704.937 502.272,707.437 505.5,709C 511.452,708.949 517.118,709.782 522.5,711.5C 521.89,712.391 521.557,713.391 521.5,714.5C 515.075,714.87 508.742,714.37 502.5,713C 497.851,710.545 495.017,706.712 494,701.5C 493.177,675.095 493.343,648.761 494.5,622.5 Z"/></g>
<g><path style="opacity:1" fill="#6ca4e0" d="M 655.5,618.5 C 657.102,635.145 661.269,651.145 668,666.5C 672.219,676.448 678.052,685.281 685.5,693C 686.167,693.667 686.833,693.667 687.5,693C 699.134,679.027 713.134,668.193 729.5,660.5C 739.042,667.03 748.042,674.363 756.5,682.5C 764.225,673.811 773.225,666.811 783.5,661.5C 790.441,663.464 797.108,666.298 803.5,670C 812.067,677.233 819.9,685.066 827,693.5C 829.967,690.86 832.634,687.86 835,684.5C 838.255,678.992 841.255,673.325 844,667.5C 844.167,714.668 844.667,761.668 845.5,808.5C 846.404,809.209 846.737,810.209 846.5,811.5C 795.546,814.371 744.546,815.204 693.5,814C 646.866,812.671 600.866,806.671 555.5,796C 542.598,792.592 530.598,787.259 519.5,780C 517.383,778.269 515.883,776.102 515,773.5C 514.498,753.518 516.665,733.851 521.5,714.5C 521.557,713.391 521.89,712.391 522.5,711.5C 529.588,690.825 541.921,673.992 559.5,661C 571.69,652.401 584.69,645.067 598.5,639C 617.105,631.076 636.105,624.243 655.5,618.5 Z"/></g>
<g><path style="opacity:1" fill="#2e5ab4" d="M 1105.5,650.5 C 1106.66,702.792 1106.82,755.126 1106,807.5C 1105.49,810.865 1104.33,813.865 1102.5,816.5C 1102.69,814.436 1103.19,812.436 1104,810.5C 1104.17,756.998 1104.67,703.665 1105.5,650.5 Z"/></g>
<g><path style="opacity:1" fill="#246aba" d="M 923.5,570.5 C 923.5,590.5 923.5,610.5 923.5,630.5C 958.5,630.5 993.5,630.5 1028.5,630.5C 1037.83,630.5 1047.17,630.5 1056.5,630.5C 1066.12,632.313 1076.12,633.146 1086.5,633C 1090.12,633.47 1093.45,634.637 1096.5,636.5C 1101.1,640.107 1104.1,644.774 1105.5,650.5C 1104.67,703.665 1104.17,756.998 1104,810.5C 1103.19,812.436 1102.69,814.436 1102.5,816.5C 1099.39,824.096 1093.73,828.596 1085.5,830C 1012.17,830.667 938.833,830.667 865.5,830C 855.984,826.983 849.651,820.816 846.5,811.5C 846.737,810.209 846.404,809.209 845.5,808.5C 845.333,756.166 845.5,703.832 846,651.5C 848.098,642.923 852.932,636.589 860.5,632.5C 862.086,631.852 863.753,631.352 865.5,631C 874.494,630.5 883.494,630.334 892.5,630.5C 893.167,630.5 893.833,630.5 894.5,630.5C 903.833,630.5 913.167,630.5 922.5,630.5C 922.166,609.12 922.499,589.12 923.5,570.5 Z"/></g>
<g><path style="opacity:1" fill="#0d3565" d="M 969.5,688.5 C 994.618,688.109 1004.45,700.109 999,724.5C 996.694,729.306 993.194,732.973 988.5,735.5C 988.167,736.833 987.833,738.167 987.5,739.5C 989.269,748.844 991.102,758.177 993,767.5C 993.784,770.76 993.617,773.927 992.5,777C 981.833,777.667 971.167,777.667 960.5,777C 958.556,774.847 958.056,772.347 959,769.5C 962.13,758.657 964.13,747.657 965,736.5C 950.968,727.101 947.634,714.767 955,699.5C 958.951,694.466 963.784,690.799 969.5,688.5 Z"/></g>
<g><path style="opacity:1" fill="#e0e6ed" d="M 513.5,856.5 C 652.167,856.333 790.834,856.5 929.5,857C 948.574,862.303 956.74,874.803 954,894.5C 950.495,907.682 941.995,915.515 928.5,918C 790.833,918.667 653.167,918.667 515.5,918C 493.848,911.005 486.015,896.505 492,874.5C 496.76,865.549 503.926,859.549 513.5,856.5 Z"/></g>
<g><path style="opacity:1" fill="#aebac7" d="M 878.5,882.5 C 890.838,882.333 903.171,882.5 915.5,883C 918.059,885.925 918.059,888.925 915.5,892C 903.167,892.667 890.833,892.667 878.5,892C 875.888,888.836 875.888,885.669 878.5,882.5 Z"/></g>
<g><path style="opacity:1" fill="#b0bcc8" d="M 811.5,882.5 C 823.838,882.333 836.171,882.5 848.5,883C 851.343,886.619 851.01,889.952 847.5,893C 835.833,893.667 824.167,893.667 812.5,893C 808.935,889.784 808.602,886.284 811.5,882.5 Z"/></g>
<g><path style="opacity:1" fill="#afbbc8" d="M 744.5,882.5 C 756.838,882.333 769.171,882.5 781.5,883C 784.476,887.094 783.809,890.427 779.5,893C 768.167,893.667 756.833,893.667 745.5,893C 741.935,889.784 741.602,886.284 744.5,882.5 Z"/></g>
<g><path style="opacity:1" fill="#afbbc8" d="M 677.5,882.5 C 689.838,882.333 702.171,882.5 714.5,883C 717.269,886.607 716.936,889.94 713.5,893C 702.167,893.667 690.833,893.667 679.5,893C 675.108,890.259 674.442,886.759 677.5,882.5 Z"/></g>
<g><path style="opacity:1" fill="#b0bbc8" d="M 610.5,882.5 C 622.505,882.333 634.505,882.5 646.5,883C 650.566,886.745 650.233,890.078 645.5,893C 634.167,893.667 622.833,893.667 611.5,893C 607.935,889.784 607.602,886.284 610.5,882.5 Z"/></g>
<g><path style="opacity:1" fill="#b0bcc8" d="M 544.5,882.5 C 556.171,882.333 567.838,882.5 579.5,883C 581.478,885.497 581.978,888.331 581,891.5C 580.25,892.126 579.416,892.626 578.5,893C 567.5,893.667 556.5,893.667 545.5,893C 540.669,889.866 540.336,886.366 544.5,882.5 Z"/></g>
</svg>
